<svg width="92" height="81" viewBox="0 0 92 81" fill="none" xmlns="http://www.w3.org/2000/svg">
<g clip-path="url(#clip0_463_1115)">
<path fill-rule="evenodd" clip-rule="evenodd" d="M10.2154 11.3364C10.1957 11.3856 10.176 11.4397 10.1662 11.4938L4.49474 36.3093C4.46523 36.4421 4.46031 36.5798 4.48491 36.7127L7.27881 51.42L4.28323 54.4598C3.40768 55.3501 2.16813 56.5011 1.31226 57.6866C0.628537 58.6359 0.195679 59.6295 0.195679 60.5494C0.195679 64.1106 2.41408 65.8961 4.65707 66.7766C6.75741 67.603 8.85775 67.5882 8.85775 67.5882H16.6C17.146 67.5882 17.5838 67.1455 17.5838 66.6044V66.0093C17.5838 65.5616 17.2837 65.1731 16.8509 65.0599L14.4997 64.4402L13.9881 50.1903L18.7741 17.2488L39.2217 32.6792C39.9055 33.1957 40.4072 33.9089 40.6531 34.7254C42.2321 39.8902 47.1853 56.083 47.1853 56.083C47.2099 56.1667 47.2444 56.2454 47.2886 56.3142L47.0673 57.357C46.9984 57.6817 46.964 58.0162 46.964 58.3506V67.1504C46.964 68.5326 48.0855 69.659 49.4726 69.659H58.0806V70.2591H48.0166C45.1883 70.2591 42.8961 72.5513 42.8961 75.3797C42.8961 78.208 45.1883 80.5051 48.0166 80.5051H86.6984C89.5267 80.5051 91.8189 78.2129 91.8189 75.3846C91.8189 72.5562 89.5267 70.2591 86.6984 70.2591H75.3998V69.659H88.479C89.1431 69.659 89.7825 69.3934 90.2498 68.9261C90.722 68.4539 90.9827 67.8194 90.9827 67.1553V59.2803C90.9827 58.6162 90.7171 57.9768 90.2498 57.5095C89.7776 57.0373 89.1431 56.7766 88.479 56.7766H88.4249V56.2946C88.4249 55.7535 87.9822 55.3108 87.4411 55.3108H76.5754C76.0343 55.3108 75.5916 55.7535 75.5916 56.2946V56.7766H74.78C74.598 56.7766 74.421 56.7963 74.2439 56.8356H74.239V38.5277C74.239 37.1406 73.1175 36.0191 71.7304 36.0191H55.4834C54.1062 36.0191 52.842 36.6094 51.9665 37.5735L49.2021 29.5951C48.7987 28.4293 48.0461 27.421 47.0575 26.6979C47.0378 26.4224 46.9001 26.1519 46.6541 25.9748L18.7594 5.65019C18.7053 5.61084 18.6512 5.58132 18.5971 5.55181L18.2921 1.41015C18.2675 1.10026 18.1003 0.819887 17.8396 0.652646C17.5789 0.485406 17.2542 0.450974 16.964 0.559188L13.5356 1.85284C13.2552 1.96106 13.0388 2.18732 12.9453 2.47262L10.2695 10.751C10.2399 10.8445 10.2252 10.9379 10.2203 11.0314V11.3265H10.2154V11.3364ZM78.1347 74.4943H86.6787C86.9148 74.4943 87.146 74.5877 87.3132 74.755C87.4805 74.9222 87.5739 75.1534 87.5739 75.3895C87.5739 75.6305 87.4805 75.8568 87.3132 76.024C87.146 76.1913 86.9148 76.2847 86.6787 76.2847H78.1347V74.4893V74.4943ZM58.5823 76.2896H76.1672V74.4943H58.5823V76.2896ZM56.6148 74.4943V76.2896H48.297C48.0609 76.2896 47.8297 76.1962 47.6625 76.0289C47.4952 75.8617 47.4018 75.6305 47.4018 75.3944C47.4018 75.1534 47.4952 74.9271 47.6625 74.7599C47.8297 74.5926 48.0609 74.4992 48.297 74.4992H56.6148V74.4943ZM72.2518 38.5228V67.6866H49.4628C49.1676 67.6866 48.9217 67.4456 48.9217 67.1455V58.3457C48.9217 58.149 48.9414 57.9571 48.9807 57.7653L52.7338 40.1903C53.0093 38.9065 54.1455 37.9866 55.4588 37.9866H71.7058C72.0058 37.9866 72.2468 38.2277 72.2468 38.5277L72.2518 38.5228ZM89.0053 59.2754V67.1504C89.0053 67.2931 88.9463 67.4308 88.8479 67.5292C88.7446 67.6325 88.6069 67.6866 88.4643 67.6866H74.239V59.2754C74.239 59.1327 74.2931 58.995 74.3964 58.8917C74.4997 58.7884 74.6325 58.7343 74.78 58.7343H88.4643C88.6069 58.7343 88.7446 58.7884 88.8479 58.8917C88.9463 58.995 89.0053 59.1278 89.0053 59.2754ZM66.4623 42.1824C66.4623 41.5184 66.1967 40.8789 65.7294 40.4116C65.2572 39.9394 64.6226 39.6787 63.9586 39.6787H58.3265C55.9556 39.6787 53.9488 41.4249 53.6192 43.7712C53.1519 47.0668 52.4485 52.0447 52.0796 54.6566C51.9763 55.3747 52.1927 56.1027 52.6699 56.6487C53.147 57.1947 53.8356 57.5144 54.5636 57.5144H65.4834C66.0245 57.5144 66.4672 57.0717 66.4672 56.5307V42.1873L66.4623 42.1824ZM63.4913 41.6413L57.6822 51.3856C57.4067 51.8528 56.8017 52.0053 56.3344 51.725C55.8671 51.4495 55.7146 50.8445 55.995 50.3772L61.209 41.6413H58.3314C56.9443 41.6413 55.7638 42.6645 55.572 44.0417L54.0324 54.9271C54.0127 55.0845 54.057 55.237 54.1603 55.3551C54.2636 55.4731 54.4111 55.542 54.5685 55.542H56.4967C56.5164 55.4928 56.541 55.4436 56.5705 55.3944L61.1991 47.6374C61.4795 47.1701 62.0845 47.0176 62.5469 47.298C63.0142 47.5784 63.1667 48.1785 62.8863 48.6458L58.7741 55.542H64.5046V42.1824C64.5046 42.0398 64.4456 41.902 64.3472 41.7987C64.2439 41.6954 64.1111 41.6413 63.9684 41.6413H63.5011H63.4913ZM50.7466 40.1017C50.7466 40.1017 50.7269 40.0526 50.7171 40.028C50.7171 40.028 48.4397 33.4564 47.3231 30.2345C47.0083 29.3295 46.3836 28.5621 45.5621 28.0752L16.7377 10.997C16.3295 10.7559 15.8081 10.8789 15.5474 11.2724C15.2818 11.6758 15.3752 12.2119 15.7589 12.5021L40.4023 31.1003C41.4156 31.8676 42.1632 32.9301 42.5321 34.145L45.5228 43.9188L44.1898 34.6566C44.1111 34.1204 44.4849 33.6187 45.026 33.5449C45.5621 33.4662 46.0639 33.8401 46.1376 34.3762L48.4888 50.6969L50.7515 40.1017H50.7466ZM8.95613 49.7132L9.43818 49.2262L9.65461 38.7097L6.7033 37.8587L8.95613 49.7181V49.7132ZM16.8755 8.9704L16.4278 2.87104L14.6718 3.53509L12.1829 11.2282L11.4205 48.5572L12.0452 48.7441H12.2075L16.9788 15.8912L14.5734 14.0762C13.3634 13.1613 13.0683 11.4643 13.9045 10.1952C14.5636 9.19175 15.7589 8.7343 16.8755 8.9704ZM6.62952 35.783L9.69888 36.6684L10.0186 20.9625L6.62952 35.783ZM44.7013 28.695C43.452 28.695 42.4338 29.7132 42.4338 30.9625C42.4338 32.2119 43.452 33.2301 44.7013 33.2301C45.9507 33.2301 46.9689 32.2119 46.9689 30.9625C46.9689 29.7132 45.9507 28.695 44.7013 28.695ZM44.7013 30.6625C44.8686 30.6625 45.0014 30.7953 45.0014 30.9625C45.0014 31.1298 44.8686 31.2626 44.7013 31.2626C44.5341 31.2626 44.4013 31.1298 44.4013 30.9625C44.4013 30.7953 44.5341 30.6625 44.7013 30.6625ZM18.9217 10.0083L32.1239 17.8292L18.784 8.10469L18.9266 10.0083H18.9217Z" fill="white"/>
</g>
<defs>
<clipPath id="clip0_463_1115">
<rect width="91.6183" height="80" fill="white" transform="translate(0.190796 0.5)"/>
</clipPath>
</defs>
</svg>
