<svg width="100" height="81" viewBox="0 0 100 81" fill="none" xmlns="http://www.w3.org/2000/svg">
<g clip-path="url(#clip0_463_1120)">
<path fill-rule="evenodd" clip-rule="evenodd" d="M14.1166 44.8724L6.83579 30.5998C6.6064 30.1502 6.05128 29.9712 5.60168 30.2006L0.500057 32.8019C0.050454 33.0313 -0.12847 33.5864 0.10092 34.036L10.6299 54.6719C10.6299 54.6719 10.6253 54.6857 10.6207 54.6902C9.65728 56.7823 8.29012 59.6405 7.90933 60.8516C7.7717 61.2829 7.75335 61.604 7.78088 61.7692C7.81758 61.994 7.90475 62.1546 8.00568 62.2738C8.24424 62.5583 8.64797 62.8336 9.14345 63.0584C10.0105 63.4529 11.2034 63.7282 11.7631 63.8704C13.7129 64.3751 14.6304 64.6687 15.9701 65.1412L20.5395 74.092C20.7689 74.5416 21.324 74.7205 21.7736 74.4911L26.8752 71.8899C27.3249 71.6605 27.5038 71.1053 27.2744 70.6557L25.8522 67.871C31.9539 68.9628 38.2208 69.2289 44.3501 70.1557C45.2126 70.2841 46.1164 70.2337 47.0156 70.2016C47.7634 70.174 48.5113 70.1603 49.2224 70.3575C51.2869 70.931 57.3565 71.7843 59.265 72.6514C59.6183 72.812 60.7928 73.0506 62.2884 73.2754C65.5274 73.7617 70.3629 74.2893 70.7896 74.3076C74.2442 74.4498 77.3226 73.4038 79.0659 72.4771C79.9055 72.0321 80.4606 71.5825 80.6946 71.2797L80.7313 71.2338C82.4701 68.8115 83.149 65.0632 84.1584 62.2555C86.6266 55.4105 95.7563 34.3434 98.8897 24.2962C99.4586 22.4702 99.8348 20.9929 99.9541 20.0112C100.018 19.4744 100.009 19.0523 99.9449 18.7587C99.4724 16.6116 97.6465 15.0793 95.504 14.4599C93.389 13.8498 91.0079 14.148 89.4481 15.4876C89.0719 15.8087 88.7324 16.1758 88.4204 16.5749C88.4158 16.5749 88.4067 16.5749 88.4021 16.5749C80.4193 16.2767 72.2393 14.1755 64.463 12.5101C56.5261 10.8081 48.5067 10.4319 40.5331 9.23445C37.1748 8.72979 33.6514 7.96822 30.4537 6.86715C29.9307 6.68822 28.7241 5.93124 27.802 5.64221C27.1 5.42199 26.4899 5.46787 26.1091 5.69726C25.7191 5.93124 25.476 6.30285 25.3659 6.7708C25.242 7.29381 25.3659 8.00951 25.3062 8.42241C25.0218 10.3263 18.1539 32.4165 14.1166 44.8724ZM87.2872 18.355C79.5339 17.9237 71.6199 15.9143 64.0822 14.2994C56.182 12.6065 48.1993 12.2349 40.2624 11.0466C36.7986 10.5236 33.1559 9.7391 29.8573 8.60133C29.4031 8.44535 28.4443 7.8627 27.5909 7.51402C27.4579 7.45897 27.279 7.40851 27.1413 7.37639C27.1322 7.47273 27.1276 7.58743 27.1276 7.67001C27.1368 8.05538 27.1597 8.43617 27.123 8.69767C26.8202 10.7025 19.3008 34.9077 15.3415 47.0516C15.3278 47.0929 15.3094 47.1342 15.2911 47.1709L24.8062 65.8156C24.8383 65.8156 24.875 65.8248 24.9071 65.8294C31.3896 67.1277 38.0878 67.3617 44.63 68.3435C45.3824 68.4582 46.1715 68.3985 46.956 68.371C47.8919 68.3389 48.8278 68.3435 49.7178 68.5912C51.8374 69.1785 58.0676 70.0914 60.0266 70.9815C60.3248 71.1145 61.3112 71.2751 62.5636 71.4632C65.7292 71.9403 70.4501 72.4587 70.863 72.4771C73.9276 72.601 76.6573 71.6788 78.2034 70.8576C78.7127 70.5869 79.0797 70.3621 79.2219 70.1878C79.7495 69.2932 80.9102 67.3801 79.41 65.4945C79.2586 65.3018 78.942 65.0357 78.5154 64.7788C78.5704 64.9807 78.5567 65.1963 78.4649 65.3981L76.8775 68.9032C76.7628 69.1555 76.5426 69.339 76.2811 69.4124C76.2811 69.4124 74.7626 69.8162 73.5376 69.807C71.0602 69.7887 68.4865 68.6968 68.2571 65.7789C68.1653 65.5587 68.1653 65.3018 68.2617 65.0724C68.2617 65.0724 68.4957 64.531 68.8764 63.6227L57.5308 61.5765L57.251 62.4941C57.1042 62.9804 56.5903 63.251 56.104 63.1042C55.6177 62.9574 55.3471 62.4436 55.4939 61.9573L56.3426 59.1725C56.4894 58.6862 57.0032 58.4155 57.4896 58.5623C57.9759 58.7091 58.2465 59.223 58.0997 59.7093L58.0676 59.8102L69.6013 61.8885C69.8215 61.3563 70.0601 60.7782 70.3124 60.1635L28.1323 52.5477C27.8708 52.5019 27.6414 52.3413 27.5084 52.1165C27.3707 51.8871 27.3432 51.6118 27.4258 51.3595L36.4224 23.7731C36.5647 23.3373 37.0097 23.0712 37.4593 23.1538L81.6443 31.2375C81.7268 31.0494 81.8048 30.8613 81.8874 30.6732C82.1214 30.1318 82.3599 29.5905 82.6077 29.0491L68.7067 26.5442L68.5782 26.9708C68.4314 27.4571 67.9176 27.7278 67.4313 27.581C66.9496 27.4342 66.6743 26.9204 66.8211 26.4341L67.6699 23.6493C67.8167 23.163 68.3305 22.8923 68.8168 23.0391C69.3031 23.1859 69.5738 23.6997 69.427 24.186L69.2481 24.7779L83.0756 27.269C83.1858 27.2874 83.2913 27.3287 83.383 27.3837C84.3189 25.3835 85.2686 23.3694 86.0118 21.3416C86.3651 20.3782 86.778 19.3413 87.2918 18.3641L87.2872 18.355ZM6.55594 34.0865L5.62003 32.2514L2.15166 34.0223L21.7599 72.4496L25.2282 70.6787L24.2556 68.7702L22.448 69.6923C21.9984 69.9217 21.4433 69.7428 21.2139 69.2932C20.9845 68.8436 21.1635 68.2884 21.6131 68.0591L23.4206 67.1369L21.847 64.0493L20.0394 64.9715C19.5898 65.2009 19.0347 65.0219 18.8053 64.5723C18.5759 64.1227 18.7549 63.5676 19.2045 63.3382L21.0121 62.4161L19.4384 59.3285L17.6309 60.2506C17.1813 60.48 16.6261 60.3011 16.3967 59.8515C16.1674 59.4019 16.3463 58.8468 16.7959 58.6174L18.6035 57.6952L17.0299 54.6077L15.2177 55.5298C14.7681 55.7592 14.213 55.5803 13.9836 55.1307C13.7542 54.6811 13.9331 54.1259 14.3827 53.8965L16.1949 52.9698L14.6213 49.8822L12.8091 50.809C12.3595 51.0384 11.8044 50.8594 11.575 50.4098C11.3456 49.9602 11.5245 49.4051 11.9741 49.1757L13.7863 48.249L12.2127 45.1614L10.4005 46.0881C9.9509 46.3175 9.39578 46.1386 9.16639 45.689C8.937 45.2394 9.11592 44.6843 9.56553 44.4549L11.3777 43.5282L9.80409 40.4406L7.99191 41.3673C7.54231 41.5967 6.98719 41.4178 6.7578 40.9682C6.52841 40.5186 6.70733 39.9634 7.15694 39.7341L8.9737 38.8073L7.40009 35.7197L5.58333 36.6465C5.13372 36.8759 4.5786 36.6969 4.34921 36.2473C4.11982 35.7977 4.29875 35.2426 4.74835 35.0132L6.56511 34.0865H6.55594ZM77.24 64.187C76.5289 63.9576 75.7214 63.8429 74.9094 63.9943C72.9917 64.3613 71.0327 65.3752 70.1243 65.889C70.4088 67.5085 72.0695 67.9535 73.5514 67.9627C74.1983 67.9627 74.9415 67.8297 75.3957 67.7287L76.795 64.632C76.8867 64.4255 77.0473 64.2741 77.2354 64.1824L77.24 64.187ZM79.1806 42.2986C78.8824 43.1428 78.5934 43.9869 78.3181 44.8357C77.7125 46.7121 76.7399 48.4371 76.093 50.2951C74.6387 54.47 72.2852 60.2231 70.9547 63.4162C72.0053 62.9345 73.2945 62.439 74.5653 62.1959C77.3868 61.6545 80.1945 63.5171 80.8506 64.3521C81.0524 64.609 81.2268 64.866 81.369 65.1229C81.7268 63.9071 82.048 62.7005 82.4333 61.6362C84.5896 55.6491 91.8429 38.789 95.7242 27.9434C96.706 25.1954 97.4721 22.8372 97.8758 21.1535C98.1006 20.2084 98.2337 19.5203 98.1557 19.1487C97.83 17.653 96.4903 16.6529 94.9993 16.2216C93.4853 15.7858 91.7649 15.9188 90.6501 16.8777C89.1912 18.1302 88.3791 20.2038 87.7322 21.9656C86.5669 25.1403 84.9108 28.2692 83.5711 31.3889C83.4381 31.6963 83.305 32.0036 83.1766 32.3156C83.1766 32.4211 83.149 32.5221 83.1078 32.623L79.1806 42.3032V42.2986ZM11.6988 56.7731C10.9281 58.5119 10.0564 60.558 9.73069 61.3242C9.87291 61.393 10.0427 61.4572 10.2124 61.5215C10.9373 61.7967 11.7906 61.9894 12.2219 62.0995C13.3046 62.3794 14.0799 62.595 14.7818 62.8106L11.6988 56.7685V56.7731ZM27.2056 56.2639L53.3789 60.9801L53.1862 61.6086C53.0394 62.0949 53.3101 62.6042 53.7964 62.7556C54.2827 62.9024 54.7919 62.6317 54.9433 62.1454L55.7921 59.3606C55.9389 58.8743 55.6682 58.3651 55.1819 58.2137C54.6956 58.0669 54.1863 58.3375 54.035 58.8238L53.9157 59.2092L27.7423 54.493L27.8387 54.1718C27.9855 53.6855 27.7148 53.1717 27.2285 53.0249C26.7422 52.8781 26.233 53.1487 26.0816 53.635L25.2328 56.4198C25.086 56.9061 25.3567 57.4154 25.843 57.5668C26.3293 57.7136 26.8431 57.4429 26.9899 56.9566L27.201 56.2593L27.2056 56.2639ZM75.2948 46.9919L61.0359 44.3677L57.329 55.9473L70.6794 58.3559L75.2902 46.9919H75.2948ZM34.4772 35.6509L41.0194 36.9951C41.2717 37.0456 41.4919 37.2062 41.625 37.431C41.758 37.6558 41.7856 37.9219 41.7076 38.1696L37.2574 52.3229L55.5122 55.617L63.7656 29.8244L37.9181 25.0944L34.4772 35.6463V35.6509ZM33.9037 37.4035L31.9952 43.2575L33.1559 43.5786C33.3991 43.6474 33.6009 43.808 33.7202 44.0282C33.8395 44.2484 33.8624 44.5099 33.7845 44.7485L31.6374 51.3045L35.4406 51.9926L39.6568 38.5871L33.9037 37.4035ZM31.3896 23.2593L22.6132 49.6116L22.3471 49.5473C21.8562 49.4326 21.3607 49.74 21.246 50.2309C21.1313 50.7218 21.4387 51.2173 21.9296 51.3366L24.0171 51.8275C24.5079 51.9422 25.0034 51.6348 25.1181 51.1439C25.2328 50.6484 24.9254 50.1575 24.4345 50.0428L24.407 50.0336L33.188 23.6814L33.2706 23.6997C33.7661 23.8144 34.257 23.507 34.3717 23.0162C34.4864 22.5253 34.1836 22.0298 33.6881 21.9151L31.6007 21.4242C31.1098 21.3095 30.6143 21.6169 30.4996 22.1078C30.3849 22.5987 30.6923 23.0941 31.1832 23.2088L31.3942 23.2593H31.3896ZM29.4995 50.9191L29.816 50.9741L31.7429 45.0926L31.4309 45.0054L29.504 50.9191H29.4995ZM80.9056 32.9625L76.4922 32.155L72.6843 44.643L76.0013 45.2532L77.4694 41.6426C78.5108 38.7156 79.699 35.8161 80.9056 32.9625ZM61.6048 42.6014L70.8675 44.3081L74.6754 31.8201L65.587 30.1548L61.6048 42.6014ZM49.7178 29.3473C49.7912 29.0996 49.7591 28.8289 49.6261 28.6087C49.493 28.3885 49.2682 28.2325 49.0113 28.182L41.0377 26.6589C40.5744 26.5717 40.1202 26.847 39.9871 27.2966L39.0834 30.3016C39.0099 30.5493 39.0421 30.82 39.1751 31.0402C39.3082 31.2604 39.533 31.4164 39.7853 31.4669L47.7589 32.99C48.2222 33.0772 48.6718 32.8019 48.8095 32.3523L49.7133 29.3473H49.7178ZM47.6671 29.7923L47.2955 31.031L41.1341 29.852L41.5057 28.6133L47.6671 29.7923ZM38.9411 21.0893L64.7199 25.7367L64.6419 25.9845C64.4951 26.4708 64.7658 26.98 65.2521 27.1314C65.7384 27.2782 66.2476 27.0075 66.399 26.5212L67.2478 23.7364C67.3946 23.2501 67.1239 22.7409 66.6376 22.5895C66.1559 22.4427 65.6421 22.7134 65.4907 23.1997L65.2567 23.9658L39.4779 19.3184L39.7119 18.5522C39.8587 18.0659 39.588 17.5521 39.1017 17.4053C38.6154 17.2585 38.1062 17.5292 37.9548 18.0155L37.106 20.8003C36.9592 21.2866 37.2299 21.8004 37.7162 21.9472C38.2025 22.094 38.7117 21.8233 38.8631 21.337L38.9411 21.0847V21.0893Z" fill="white"/>
</g>
<defs>
<clipPath id="clip0_463_1120">
<rect width="100" height="69.1012" fill="white" transform="translate(0 5.5)"/>
</clipPath>
</defs>
</svg>
