<svg width="66" height="81" viewBox="0 0 66 81" fill="none" xmlns="http://www.w3.org/2000/svg">
<path fill-rule="evenodd" clip-rule="evenodd" d="M3.20741 43.0756C4.43473 58.5467 12.2596 71.3384 22.7637 76.5472C22.879 77.5959 23.5704 78.5467 24.6249 78.9385C27.3791 79.9584 30.2774 80.5058 33.2737 80.5058C36.2699 80.5058 39.1682 79.9641 41.9225 78.9385C42.9769 78.5467 43.6684 77.6017 43.7836 76.5472C54.1265 71.4248 61.8649 58.9615 63.2766 43.8132C63.2996 43.5712 63.2593 43.3349 63.1728 43.1217C63.3918 43.1736 63.5013 43.2024 63.5013 43.2024C64.0948 43.3522 64.7055 43.0122 64.8899 42.4303C64.8899 42.4303 65.8349 39.3476 65.8349 37.4865C65.8349 22.3381 56.3967 8.09435 43.3572 3.02377C42.2048 1.88865 40.6664 1.23178 38.8456 0.886056C37.117 0.55762 35.1233 0.5 32.9971 0.5C30.8709 0.5 28.8773 0.551858 27.1486 0.886056C25.3278 1.23178 23.7894 1.88865 22.637 3.02377C9.5975 8.09435 0.159302 22.3439 0.159302 37.4865C0.159302 40.6152 1.45 42.6896 1.45 42.6896C1.71505 43.1275 2.24516 43.3349 2.74069 43.2024C2.74069 43.2024 2.90203 43.1563 3.20741 43.0756ZM60.3206 44.47C58.4134 45.3286 55.8954 46.1987 54.9274 46.262C52.2135 46.4349 32.5765 44.1992 32.5246 44.1992C32.467 44.1992 14.4952 46.4349 11.7755 46.262C10.7787 46.1987 8.15123 45.2767 6.22672 44.4009C7.73061 58.0108 14.6047 69.3044 23.8989 73.9313C24.6594 73.3609 25.6793 73.1765 26.6358 73.5337C28.7505 74.3174 30.9804 74.738 33.2794 74.738C35.5785 74.738 37.8084 74.3174 39.9231 73.5337C40.8738 73.1822 41.8994 73.3609 42.6543 73.9313C51.9254 69.3159 58.7995 58.0511 60.3149 44.47H60.3206ZM59.5773 42.2747C53.6194 40.9379 42.0377 38.6389 32.9971 38.6389C23.5186 38.6389 12.6802 40.8169 6.89511 42.1652C7.1544 42.2978 7.42522 42.4303 7.69027 42.5455C9.25754 43.2312 11.1533 43.9169 11.9196 43.963C14.6105 44.1358 32.4324 41.9002 32.4843 41.9002C32.5361 41.9002 52.0752 44.1358 54.7718 43.963C55.5382 43.9169 57.4339 43.2254 59.0011 42.5455C59.1913 42.4649 59.3814 42.3727 59.5716 42.2747H59.5773ZM41.0524 4.10703C40.3091 3.62302 39.416 3.33492 38.4192 3.14477C36.8173 2.83938 34.9677 2.80481 33.0029 2.80481C31.038 2.80481 29.1826 2.84515 27.5866 3.14477C26.5724 3.34068 25.6678 3.63454 24.9187 4.13008C25.0282 4.32599 25.0801 4.55071 25.057 4.79271L22.7061 31.5861C22.6485 32.22 22.0896 32.6867 21.4558 32.6348C20.8219 32.5772 20.3552 32.0183 20.4071 31.3845L22.6773 5.49568C10.8824 10.5029 2.46411 23.6057 2.46411 37.4865C2.46411 38.8982 2.79255 40.0333 3.06336 40.7305C6.79716 39.7682 20.9717 36.3341 32.9971 36.3341C44.066 36.3341 58.8917 39.7164 62.9885 40.7017C63.2305 39.7855 63.5301 38.443 63.5301 37.4865C63.5301 23.5884 55.0887 10.4625 43.2708 5.47263L45.541 31.3845C45.5987 32.0183 45.1262 32.5772 44.4923 32.6348C43.8585 32.6925 43.2996 32.22 43.242 31.5861L40.8911 4.79271C40.868 4.54494 40.9257 4.3087 41.0467 4.11279L41.0524 4.10703Z" fill="white"/>
</svg>
