<svg width="111" height="97" viewBox="0 0 111 97" fill="none" xmlns="http://www.w3.org/2000/svg">
<g clip-path="url(#clip0_346_1532)">
<g clip-path="url(#clip1_346_1532)">
<g clip-path="url(#clip2_346_1532)">
<path d="M31.0966 91.9761V81.2784C21.3981 74.4503 19.1646 66.4368 19.1646 60.0593C19.1646 32.9525 34.1139 34.8922 47.7604 34.8922C58.3601 34.8922 65.7467 34.1183 74.779 49.4497L66.3834 56.3366V91.9859" stroke="white" stroke-width="1.98" stroke-linecap="round" stroke-linejoin="round"/>
<path d="M47.7603 33.589C55.1456 33.589 61.1325 27.6021 61.1325 20.2169C61.1325 12.8316 55.1456 6.84473 47.7603 6.84473C40.3751 6.84473 34.3882 12.8316 34.3882 20.2169C34.3882 27.6021 40.3751 33.589 47.7603 33.589Z" stroke="white" stroke-width="1.98" stroke-linecap="round" stroke-linejoin="round"/>
<path d="M109.076 16.1123L70.9975 20.7166L77.0126 28.7301L8.54517 80.2497L19.5368 94.9052L88.014 43.3856L94.029 51.3991L109.076 16.1123Z" fill="white" stroke="white" stroke-width="1.98" stroke-linecap="round" stroke-linejoin="round"/>
<path d="M33.0755 57.522C32.6543 66.711 39.2865 72.2264 45.2525 77.0071C51.2185 81.7878 45.6737 90.1442 33.7319 82.9829C21.79 75.8217 19.1646 66.9755 19.1646 60.0495" stroke="white" stroke-width="1.98" stroke-linecap="round" stroke-linejoin="round"/>
<path d="M76.0329 51.3111C64.6005 40.339 56.6066 48.2154 61.7007 55.2688C63.8853 58.2861 68.715 63.0962 71.5755 65.0457C79.0992 70.179 88.6507 63.4195 76.0329 51.3013V51.3111Z" stroke="white" stroke-width="1.98" stroke-linecap="round" stroke-linejoin="round"/>
<path d="M77.1106 77.0952L72.1536 80.8081" stroke="white" stroke-width="1.98" stroke-linecap="round" stroke-linejoin="round"/>
<path d="M98.7999 60.8135L81.47 73.8134" stroke="white" stroke-width="1.98" stroke-linecap="round" stroke-linejoin="round"/>
<path d="M19.233 35.186L1.34473 48.6072" stroke="white" stroke-width="1.98" stroke-linecap="round" stroke-linejoin="round"/>
<path d="M27.9911 28.6128L23.5925 31.9142" stroke="white" stroke-width="1.98" stroke-linecap="round" stroke-linejoin="round"/>
<path d="M88.9447 77.7515L78.2666 85.765" stroke="white" stroke-width="1.98" stroke-linecap="round" stroke-linejoin="round"/>
<path d="M97.7126 71.1782L93.3042 74.4796" stroke="white" stroke-width="1.98" stroke-linecap="round" stroke-linejoin="round"/>
<path d="M12.5227 31.0912L27.9913 19.4727" stroke="white" stroke-width="1.98" stroke-linecap="round" stroke-linejoin="round"/>
<path d="M4.15649 37.3705L9.07431 33.6772" stroke="white" stroke-width="1.98" stroke-linecap="round" stroke-linejoin="round"/>
</g>
</g>
</g>
<defs>
<clipPath id="clip0_346_1532">
<rect width="111" height="91" fill="white" transform="translate(0 5.625)"/>
</clipPath>
<clipPath id="clip1_346_1532">
<rect width="110.25" height="90" fill="white" transform="translate(0.375 5.875)"/>
</clipPath>
<clipPath id="clip2_346_1532">
<rect width="109.681" height="90" fill="white" transform="translate(0.375 5.875)"/>
</clipPath>
</defs>
</svg>
