<svg width="129" height="81" viewBox="0 0 129 81" fill="none" xmlns="http://www.w3.org/2000/svg">
<g clip-path="url(#clip0_346_1553)">
<g clip-path="url(#clip1_346_1553)">
<path d="M64.4993 2.51969C64.638 2.51969 64.7726 2.54662 64.8898 2.59644L125.059 28.5616L64.8898 54.5268C64.7726 54.5779 64.638 54.6035 64.4993 54.6035C64.3606 54.6035 64.226 54.5766 64.1088 54.5268L3.94085 28.5616L64.1102 2.59644C64.2273 2.54527 64.362 2.51969 64.5006 2.51969M64.4993 0.5C64.0913 0.5 63.6833 0.580788 63.309 0.742363L0.516797 27.8399C-0.172591 28.1375 -0.172591 28.9871 0.516797 29.2846L63.309 56.3822C63.6833 56.5438 64.0913 56.6245 64.4993 56.6245C64.9073 56.6245 65.3153 56.5438 65.6896 56.3822L128.482 29.2846C129.171 28.9871 129.171 28.1375 128.482 27.8399L65.6909 0.742363C65.3166 0.580788 64.9086 0.5 64.5006 0.5H64.4993Z" fill="white"/>
<path d="M27.6291 47.0957L61.09 61.5338C62.1739 62.001 63.3211 62.2367 64.4992 62.2367C65.6774 62.2367 66.8286 61.9997 67.9138 61.5324L99.1598 48.0476V62.1895C99.1598 62.6379 99.0144 63.0809 98.7519 63.435C97.6154 64.9457 94.3233 68.8303 88.2952 72.3014C81.1725 76.4014 72.7948 78.4817 63.3938 78.4817C53.9928 78.4817 45.6164 76.4028 38.4937 72.3014C32.4602 68.8276 29.1694 64.943 28.0344 63.435C27.7718 63.0863 27.6277 62.6433 27.6277 62.1909V47.097M25.6094 44.0244V62.1895C25.6094 63.0728 25.8894 63.9386 26.4213 64.6468C29.3849 68.5866 40.644 80.5001 63.3951 80.5001C86.1463 80.5001 97.4054 68.5866 100.369 64.6468C100.897 63.9386 101.181 63.0742 101.181 62.1895V44.9764L67.1154 59.6784C66.2887 60.0338 65.4094 60.217 64.5006 60.217C63.5917 60.217 62.7152 60.0338 61.8898 59.6784L25.6107 44.0244H25.6094Z" fill="white"/>
<path d="M12.0386 32.4771V53.2274H14.6682V33.6121L12.0386 32.4771Z" fill="white"/>
<path d="M13.3527 53.882C14.3827 53.882 15.2216 54.7208 15.2216 55.7509C15.2216 56.7809 14.3827 57.6198 13.3527 57.6198C12.3226 57.6198 11.4838 56.7809 11.4838 55.7509C11.4838 54.7208 12.3226 53.882 13.3527 53.882ZM13.3527 51.8623C11.2051 51.8623 9.46411 53.6033 9.46411 55.7509C9.46411 57.8985 11.2051 59.6395 13.3527 59.6395C15.5003 59.6395 17.2413 57.8985 17.2413 55.7509C17.2413 53.6033 15.5003 51.8623 13.3527 51.8623Z" fill="white"/>
<path d="M13.3527 61.5054C13.6489 62.3671 13.9936 63.587 14.3437 65.254C14.9092 67.9374 15.2216 70.5051 15.2216 71.2524C15.2216 72.0495 15.0088 72.8493 14.652 73.3947C14.3195 73.9023 13.9317 74.1191 13.3527 74.1191C12.7737 74.1191 12.3859 73.9023 12.0534 73.3947C11.6965 72.8493 11.4838 72.0482 11.4838 71.2524C11.4838 70.5038 11.7962 67.9374 12.3617 65.254C12.7131 63.5884 13.0565 62.3671 13.3527 61.5054ZM13.3527 58.0625C11.2051 58.0625 9.46411 69.1048 9.46411 71.2524C9.46411 73.4 10.5682 76.1401 13.3527 76.1401C16.1372 76.1401 17.2413 73.4 17.2413 71.2524C17.2413 69.1048 15.5003 58.0625 13.3527 58.0625Z" fill="white"/>
</g>
</g>
<defs>
<clipPath id="clip0_346_1553">
<rect width="129" height="80" fill="white" transform="translate(-0.000244141 0.5)"/>
</clipPath>
<clipPath id="clip1_346_1553">
<rect width="129" height="80" fill="white" transform="translate(-0.000244141 0.5)"/>
</clipPath>
</defs>
</svg>
