<svg width="113" height="90" viewBox="0 0 113 90" fill="none" xmlns="http://www.w3.org/2000/svg">
<g clip-path="url(#clip0_346_1493)">
<g clip-path="url(#clip1_346_1493)">
<path d="M74.6322 88.9812V80.8397C74.5395 56.7443 65.029 57.8456 56.2596 57.8456C47.4901 57.8456 37.9796 56.7443 37.887 80.8397V88.9812" stroke="white" stroke-width="1.98" stroke-linecap="round" stroke-linejoin="round"/>
<path d="M56.2597 57.0117C61.0063 57.0117 64.8542 53.1638 64.8542 48.4172C64.8542 43.6706 61.0063 39.8228 56.2597 39.8228C51.5132 39.8228 47.6653 43.6706 47.6653 48.4172C47.6653 53.1638 51.5132 57.0117 56.2597 57.0117Z" stroke="white" stroke-width="1.98" stroke-linecap="round" stroke-linejoin="round"/>
<path d="M45.1743 72.3892V88.9811" stroke="white" stroke-width="1.98" stroke-linecap="round" stroke-linejoin="round"/>
<path d="M66.6863 72.3892V88.9811" stroke="white" stroke-width="1.98" stroke-linecap="round" stroke-linejoin="round"/>
<path d="M65.2614 22.7491C70.2336 17.7769 70.2336 9.71532 65.2614 4.7431C60.2892 -0.229118 52.2277 -0.229119 47.2554 4.7431C42.2832 9.71532 42.2832 17.7769 47.2554 22.7491C52.2277 27.7213 60.2892 27.7213 65.2614 22.7491Z" stroke="white" stroke-width="1.98" stroke-linecap="round" stroke-linejoin="round"/>
<path d="M63.2486 21.8412V20.1737C63.2074 11.0029 59.5946 11.4249 56.2598 11.4249C52.9249 11.4249 49.3019 11.0029 49.271 20.1737V21.8412" stroke="white" stroke-width="1.98" stroke-linecap="round" stroke-linejoin="round"/>
<path d="M56.2597 11.116C58.0674 11.116 59.5328 9.65061 59.5328 7.84293C59.5328 6.03524 58.0674 4.56982 56.2597 4.56982C54.452 4.56982 52.9866 6.03524 52.9866 7.84293C52.9866 9.65061 54.452 11.116 56.2597 11.116Z" stroke="white" stroke-width="1.98" stroke-linecap="round" stroke-linejoin="round"/>
<path d="M52.0396 16.9624V21.8412" stroke="white" stroke-width="1.98" stroke-linecap="round" stroke-linejoin="round"/>
<path d="M60.2224 16.9624V21.8412" stroke="white" stroke-width="1.98" stroke-linecap="round" stroke-linejoin="round"/>
<path d="M36.6527 34.5373C38.2679 27.6936 34.0294 20.8362 27.1857 19.2209C20.3419 17.6056 13.4846 21.8442 11.8693 28.6879C10.254 35.5316 14.4925 42.389 21.3363 44.0043C28.18 45.6196 35.0374 41.3811 36.6527 34.5373Z" stroke="white" stroke-width="1.98" stroke-linecap="round" stroke-linejoin="round"/>
<path d="M31.2586 39.6991V38.0316C31.2174 28.8608 27.6047 29.2828 24.2698 29.2828C20.9349 29.2828 17.3119 28.8608 17.281 38.0316V39.6991" stroke="white" stroke-width="1.98" stroke-linecap="round" stroke-linejoin="round"/>
<path d="M24.2594 28.9739C26.0671 28.9739 27.5325 27.5085 27.5325 25.7008C27.5325 23.8931 26.0671 22.4277 24.2594 22.4277C22.4517 22.4277 20.9863 23.8931 20.9863 25.7008C20.9863 27.5085 22.4517 28.9739 24.2594 28.9739Z" stroke="white" stroke-width="1.98" stroke-linecap="round" stroke-linejoin="round"/>
<path d="M20.0498 34.8203V39.6991" stroke="white" stroke-width="1.98" stroke-linecap="round" stroke-linejoin="round"/>
<path d="M28.2324 34.8203V39.6991" stroke="white" stroke-width="1.98" stroke-linecap="round" stroke-linejoin="round"/>
<path d="M26.9542 66.82C28.5694 59.9763 24.3309 53.1189 17.4872 51.5036C10.6435 49.8884 3.78607 54.1269 2.1708 60.9706C0.555528 67.8144 4.79404 74.6717 11.6378 76.287C18.4815 77.9023 25.3389 73.6638 26.9542 66.82Z" stroke="white" stroke-width="1.98" stroke-linecap="round" stroke-linejoin="round"/>
<path d="M21.5525 71.9876V70.3202C21.5114 61.1494 17.8986 61.5714 14.5637 61.5714C11.2289 61.5714 7.60583 61.1494 7.57495 70.3202V71.9876" stroke="white" stroke-width="1.98" stroke-linecap="round" stroke-linejoin="round"/>
<path d="M14.5636 61.2625C16.3713 61.2625 17.8367 59.7971 17.8367 57.9894C17.8367 56.1817 16.3713 54.7163 14.5636 54.7163C12.7559 54.7163 11.2905 56.1817 11.2905 57.9894C11.2905 59.7971 12.7559 61.2625 14.5636 61.2625Z" stroke="white" stroke-width="1.98" stroke-linecap="round" stroke-linejoin="round"/>
<path d="M10.3435 67.1089V71.9877" stroke="white" stroke-width="1.98" stroke-linecap="round" stroke-linejoin="round"/>
<path d="M18.5264 67.1089V71.9877" stroke="white" stroke-width="1.98" stroke-linecap="round" stroke-linejoin="round"/>
<path d="M90.2927 44.1686C97.2336 43.0419 101.947 36.5018 100.82 29.5609C99.6937 22.6199 93.1536 17.9066 86.2127 19.0332C79.2717 20.1599 74.5584 26.7 75.685 33.6409C76.8117 40.5818 83.3518 45.2952 90.2927 44.1686Z" stroke="white" stroke-width="1.98" stroke-linecap="round" stroke-linejoin="round"/>
<path d="M81.2607 39.6991V38.0316C81.3019 28.8608 84.9147 29.2828 88.2495 29.2828C91.5844 29.2828 95.2074 28.8608 95.2383 38.0316V39.6991" stroke="white" stroke-width="1.98" stroke-linecap="round" stroke-linejoin="round"/>
<path d="M88.2497 28.9739C90.0573 28.9739 91.5228 27.5085 91.5228 25.7008C91.5228 23.8931 90.0573 22.4277 88.2497 22.4277C86.442 22.4277 84.9766 23.8931 84.9766 25.7008C84.9766 27.5085 86.442 28.9739 88.2497 28.9739Z" stroke="white" stroke-width="1.98" stroke-linecap="round" stroke-linejoin="round"/>
<path d="M92.4697 34.8203V39.6991" stroke="white" stroke-width="1.98" stroke-linecap="round" stroke-linejoin="round"/>
<path d="M84.2766 34.8203V39.6991" stroke="white" stroke-width="1.98" stroke-linecap="round" stroke-linejoin="round"/>
<path d="M109.721 68.7611C112.412 62.2646 109.327 54.8167 102.83 52.1257C96.3337 49.4348 88.8858 52.5198 86.1949 59.0163C83.5039 65.5128 86.589 72.9607 93.0855 75.6517C99.582 78.3426 107.03 75.2576 109.721 68.7611Z" stroke="white" stroke-width="1.98" stroke-linecap="round" stroke-linejoin="round"/>
<path d="M90.9565 71.9876V70.3202C90.9977 61.1494 94.6105 61.5714 97.9453 61.5714C101.28 61.5714 104.903 61.1494 104.934 70.3202V71.9876" stroke="white" stroke-width="1.98" stroke-linecap="round" stroke-linejoin="round"/>
<path d="M97.9557 61.2625C99.7634 61.2625 101.229 59.7971 101.229 57.9894C101.229 56.1817 99.7634 54.7163 97.9557 54.7163C96.148 54.7163 94.6826 56.1817 94.6826 57.9894C94.6826 59.7971 96.148 61.2625 97.9557 61.2625Z" stroke="white" stroke-width="1.98" stroke-linecap="round" stroke-linejoin="round"/>
<path d="M102.166 67.1089V71.9877" stroke="white" stroke-width="1.98" stroke-linecap="round" stroke-linejoin="round"/>
<path d="M93.9827 67.1089V71.9877" stroke="white" stroke-width="1.98" stroke-linecap="round" stroke-linejoin="round"/>
<path d="M56.2598 36.9512V26.4731" stroke="white" stroke-width="1.98" stroke-linecap="round" stroke-linejoin="round"/>
<path d="M40.2236 47.8613L33.1113 40.749" stroke="white" stroke-width="1.98" stroke-linecap="round" stroke-linejoin="round"/>
<path d="M36.1886 63.8975H27.2854" stroke="white" stroke-width="1.98" stroke-linecap="round" stroke-linejoin="round"/>
<path d="M72.2854 47.8613L79.3977 40.749" stroke="white" stroke-width="1.98" stroke-linecap="round" stroke-linejoin="round"/>
<path d="M76.3306 63.8975H85.2235" stroke="white" stroke-width="1.98" stroke-linecap="round" stroke-linejoin="round"/>
</g>
</g>
<defs>
<clipPath id="clip0_346_1493">
<rect width="111.375" height="90" fill="white" transform="translate(0.8125)"/>
</clipPath>
<clipPath id="clip1_346_1493">
<rect width="110.884" height="90" fill="white" transform="translate(0.8125)"/>
</clipPath>
</defs>
</svg>
